<?xml version="1.0" encoding="UTF-8"?>
<svg id="DGLabGameController" data-name="DGLabGameController" xmlns="http://www.w3.org/2000/svg" viewBox="0 0 200.98 250.91">
  <defs>
    <style>
      .cls-1 {
        stroke: #ffe99d;
        stroke-miterlimit: 10;
        stroke-width: 10px;
      }

      .cls-2 {
        fill: #ffe99d;
      }
    </style>
  </defs>
  <path class="cls-1" d="M169.77,245.91H31.2c-14.47,0-26.2-11.73-26.2-26.2V31.2c0-14.47,11.73-26.2,26.2-26.2h112.37s52.41,52.41,52.41,52.41v162.3c0,14.47-11.73,26.2-26.2,26.2Z"/>
  <g>
    <g>
      <circle class="cls-2" cx="116.01" cy="163.79" r="9.07"/>
      <circle class="cls-2" cx="140.55" cy="163.79" r="9.07"/>
    </g>
    <g>
      <circle class="cls-2" cx="116.01" cy="188.34" r="9.07"/>
      <circle class="cls-2" cx="140.55" cy="188.34" r="9.07"/>
    </g>
  </g>
  <g>
    <path class="cls-2" d="M53.9,157.05h0c3.39-3.39,8.88-3.39,12.27,0l25.77,25.77c3.39,3.39,3.39,8.88,0,12.27h0c-3.39,3.39-8.88,3.39-12.27,0l-25.77-25.77c-3.39-3.39-3.39-8.88,0-12.27Z"/>
    <path class="cls-2" d="M53.9,182.82l25.77-25.77c3.39-3.39,8.88-3.39,12.27,0h0c3.39,3.39,3.39,8.88,0,12.27l-25.77,25.77c-3.39,3.39-8.88,3.39-12.27,0h0c-3.39-3.39-3.39-8.88,0-12.27Z"/>
  </g>
</svg>